<svg xmlns="http://www.w3.org/2000/svg" width="50" height="50" viewBox="0 0 50 50">
  <g id="clear">
    <g>
      <path d="M6.6,17.7a1.065,1.065,0,0,1,.773-.593q4.38-1.5,8.764-3a16.3,16.3,0,0,0,2.506-1.112.671.671,0,0,1,1.027.213Q26.429,21.8,33.187,30.4c.259.33.506.671.739,1.02.2.3.179.521-.115.719a16.629,16.629,0,0,0-3.324,3.522c-1.02,1.229-2.016,2.477-3.037,3.706-.38.457-.77.5-1.171.052-.574-.636-1.119-1.3-1.679-1.943-.251-.289-.513-.576-.775-.859-.625-.674-1.3-1.3-1.879-2.019-.09-.112-.215-.194-.313-.3q-1.061-1.125-2.119-2.252c-.461-.492-.926-.984-1.4-1.466-.729-.745-1.432-1.514-2.141-2.277-.451-.486-.923-.957-1.379-1.441-.722-.766-1.475-1.5-2.155-2.309-.107-.126-.247-.224-.362-.345-1-1.043-2-2.074-2.98-3.137-.7-.757-1.44-1.467-2.092-2.264A2.566,2.566,0,0,1,6.6,18.1.655.655,0,0,1,6.6,17.7Z" fill="none" stroke="#fff" stroke-miterlimit="10"/>
      <path d="M37.947,27.334a5.538,5.538,0,0,1-2.46,3.526c-.58.417-.594.434-1.026-.151-.978-1.322-2.007-2.6-3.023-3.9q-5.427-6.9-10.858-13.8c-.2-.25-.4-.491-.614-.729-.066-.075-.111-.122-.006-.2A8.992,8.992,0,0,1,22.4,10.5a3.943,3.943,0,0,1,3.683.309A5.38,5.38,0,0,1,27.2,12.044q1.646,2.088,3.277,4.187c.1.128.173.146.317.031.651-.52,1.318-1.021,1.976-1.534.863-.673,1.72-1.355,2.584-2.028.759-.593,1.521-1.18,2.284-1.768.6-.462,1.222-.9,1.8-1.387.7-.586,1.411-1.16,2.155-1.686a2.123,2.123,0,0,1,2.337-.127,2.062,2.062,0,0,1,1.156,1.959,2.126,2.126,0,0,1-.844,1.692q-3.1,2.426-6.212,4.843-2.243,1.746-4.488,3.487c-.167.129-.148.217-.028.369,1.223,1.547,2.421,3.115,3.665,4.645a3.693,3.693,0,0,1,.816,2.257C37.933,27.1,37.993,27.222,37.947,27.334Z" fill="none" stroke="#fff" stroke-miterlimit="10"/>
      <path d="M4.939,38.021a1.83,1.83,0,0,1,.372-1.388,1.7,1.7,0,0,1,1.8-.418,3.359,3.359,0,0,1,1.164.531c.159.108.228.107.382-.08a3.621,3.621,0,0,1,3.322-1.377,2.991,2.991,0,0,1,2.23,1.278,3.178,3.178,0,0,1-.1,3.757,3.671,3.671,0,0,1-3.245,1.656,1.234,1.234,0,0,0-.85.246,1.946,1.946,0,0,1-2.082.059,5.469,5.469,0,0,1-2.7-2.849A2.425,2.425,0,0,1,4.939,38.021Z" fill="none" stroke="#fff" stroke-miterlimit="10"/>
      <path d="M11.091,32.906a1.428,1.428,0,0,1-1.155-1.951,2.728,2.728,0,0,1,2.325-2.021,1.612,1.612,0,0,1,1.669.562,1.581,1.581,0,0,1,.077,1.726,3.113,3.113,0,0,1-2.364,1.735.86.86,0,0,1-.2,0C11.334,32.9,11.205,32.952,11.091,32.906Z" fill="none" stroke="#fff" stroke-miterlimit="10"/>
      <path d="M5.674,25.169c-.035-.834.592-1.184,1.37-.952a2.488,2.488,0,0,1,1.632,2.072c.048.9-.742,1.381-1.626.995A2.479,2.479,0,0,1,5.674,25.169Z" fill="none" stroke="#fff" stroke-miterlimit="10"/>
      <path d="M6.6,17.7l0,.4A.32.32,0,0,1,6.6,17.7Z" fill="#fdfdfd"/>
      <path d="M37.947,27.334a.646.646,0,0,1,.047-.35C37.988,27.1,38.039,27.228,37.947,27.334Z" fill="#fdfdfd"/>
      <path d="M11.091,32.906l.356.047C11.327,32.948,11.2,33,11.091,32.906Z" fill="#fdfdfd"/>
    </g>
  </g>
</svg>
