<svg xmlns="http://www.w3.org/2000/svg" viewBox="0 0 50 50">
  <g id="logBox">
    <g>
      <path d="M29.946,5.015,39.4,14.768a2.015,2.015,0,0,0-.256-.061c-2.908,0-5.816,0-8.724.008-.353,0-.553-.019-.55-.482.024-2.949.012-5.9.014-8.848C29.886,5.33,29.9,5.275,29.946,5.015Z" fill="#fefefe"/>
      <path d="M39.036,17.874c-3.59.025-7.18.015-10.77.012-1.053,0-1.508-.438-1.558-1.476-.008-.144,0-.288,0-.433,0-3.446-.011-6.891.012-10.337,0-.518-.142-.642-.651-.64-4.621.02-9.243.012-13.865.012-1.437,0-1.878.44-1.878,1.872V25.021q0,9.1,0,18.2c0,1.372.4,1.781,1.745,1.781H37.942c1.348,0,1.722-.373,1.722-1.725q0-12.379.012-24.759C39.677,18.005,39.554,17.871,39.036,17.874Zm-21.543-6.2A3.162,3.162,0,1,1,17.2,17.99a3.207,3.207,0,0,1-3.019-3.219A3.149,3.149,0,0,1,17.493,11.673Zm-2.59,10.7q7.49.021,14.979.009c1.568,0,3.136.016,4.7-.01.438-.007.571.124.549.555a19.59,19.59,0,0,0,0,2.042c.026.453-.088.586-.569.583-3.3-.026-6.6-.014-9.9-.014-3.281,0-6.561-.008-9.842.01-.425,0-.574-.093-.547-.538a15.276,15.276,0,0,0,0-2.041C14.233,22.449,14.448,22.376,14.9,22.377ZM35.137,38.49c.03.468-.114.582-.578.579-3.3-.021-6.6-.011-9.9-.011-3.257,0-6.515-.01-9.772.01-.47,0-.654-.095-.617-.6a14.837,14.837,0,0,0,0-1.978c-.029-.479.106-.628.605-.622,2.268.028,4.536.013,6.8.013,4.268,0,8.536.008,12.8-.012.51,0,.688.12.65.643A14.837,14.837,0,0,0,35.137,38.49Zm0-6.695c.012.357-.061.5-.467.5q-9.954-.018-19.909,0c-.383,0-.5-.109-.481-.489a18.249,18.249,0,0,0,0-2.039c-.034-.5.091-.656.624-.651,3.277.027,6.554.014,9.831.014s6.554.01,9.831-.012c.46,0,.607.1.578.573C35.094,30.392,35.11,31.1,35.133,31.8Z" fill="#fefefe"/>
    </g>
  </g>
</svg>
