<svg xmlns="http://www.w3.org/2000/svg" viewBox="0 0 50 50">
  <g id="helpBox">
    <g>
      <path d="M46.375,14.744c0-1.971-1.147-3.48-2.788-3.669a3.893,3.893,0,0,0-.554-.02v-.488c0-.6,0-1.209,0-1.814a1.642,1.642,0,0,0-.8-1.506c-.122-.07-.245-.138-.371-.2A19.987,19.987,0,0,0,30.7,5.3,18.872,18.872,0,0,0,25,6.953a19.268,19.268,0,0,0-7.888-1.818,20.1,20.1,0,0,0-9.15,1.993,1.814,1.814,0,0,0-1.01,1.821c.01.623.008,1.247.006,1.875v.233H6.916a3.947,3.947,0,0,0-.873.08,3.473,3.473,0,0,0-2.418,3.6V40.189c0,2.146,1.314,3.7,3.125,3.7H9.042q6.873,0,13.749,0A.3.3,0,0,1,23.04,44a2.722,2.722,0,0,0,1.971.878A2.818,2.818,0,0,0,27.1,43.89q6.712.008,13.425,0h2.684a2.915,2.915,0,0,0,2.321-1.137,1.979,1.979,0,0,1-1.51.656H41.282q-6.847,0-13.706,0a1.013,1.013,0,0,0-.814.383,1.729,1.729,0,0,1-2.626.043,1.265,1.265,0,0,0-.958-.428H23.17q-7.017.01-14.037,0H6.794A2.237,2.237,0,0,1,4.677,40.9V14.91a2.336,2.336,0,0,1,1.608-2.426,3.267,3.267,0,0,1,.692-.058c.131,0,.261,0,.39-.012l.119-.008.051-.64.03.634.507-.034,0-1.442c0-.653,0-1.3-.006-1.946a.591.591,0,0,1,.366-.659A19.258,19.258,0,0,1,12.905,6.8a18.857,18.857,0,0,1,4.441-.416,18.747,18.747,0,0,1,7.745,1.8.788.788,0,0,0,.668,0,18.292,18.292,0,0,1,5.61-1.635,19.484,19.484,0,0,1,10.872,1.7c.107.052.212.109.315.169a.373.373,0,0,1,.212.39c0,.621,0,1.241,0,1.862v1.777l.9-.007a4.64,4.64,0,0,1,.637.01,2.276,2.276,0,0,1,1.878,2.483V40.855a3.15,3.15,0,0,1-.277,1.329,4.414,4.414,0,0,0,.473-2.04Z" fill="#fff"/>
      <path d="M9.318,38.429a18.962,18.962,0,0,1,14.687,0l.694.277-.005-3.841.006-4.143-.006-4.144.006-4.142-.006-4.144L24.7,13.54q0-1.837,0-3.673l0-.2a.844.844,0,0,0-.558-.96l-.135-.063a16,16,0,0,0-5.4-1.437,19.294,19.294,0,0,0-6.131.358A14.645,14.645,0,0,0,9.2,8.691a1.014,1.014,0,0,0-.578,1.021c.016.99.015,1.98.013,2.97L8.624,38.706ZM9.677,18.9l.013-6.215c0-.955,0-1.909-.011-2.88a13.807,13.807,0,0,1,2.994-1.018,18.409,18.409,0,0,1,5.846-.341,15.087,15.087,0,0,1,5.1,1.352l.033.015v.059c0,1.222,0,2.445,0,3.668l-.007,4.754.006,4.144-.006,4.142.006,4.144-.006,4.143,0,2.121a19.969,19.969,0,0,0-13.97,0l0-8.97Z" fill="#fff"/>
      <path d="M45.9,42.184a3.462,3.462,0,0,1-.368.573A2.242,2.242,0,0,0,45.9,42.184Z" fill="#fff"/>
      <path d="M25.3,38.7,26,38.427a18.948,18.948,0,0,1,14.687,0l.7.278V20.248q0-2.258,0-4.515c0-.484-.006-.966-.012-1.45-.006-.546-.013-1.092-.012-1.639,0-.508.005-1.016.011-1.524s.011-1.026.011-1.54a.974.974,0,0,0-.447-.807,6.747,6.747,0,0,0-.742-.359A17.014,17.014,0,0,0,34.325,7.13a18.993,18.993,0,0,0-4.053.217,16.247,16.247,0,0,0-3.438.923c-.347.137-.682.287-1.009.45a.969.969,0,0,0-.528.947c.01.577.01,1.155.009,1.732ZM30.415,8.58a18.243,18.243,0,0,1,3.863-.207,16.136,16.136,0,0,1,5.55,1.212c.165.07.329.143.492.227,0,.431-.007.861-.012,1.292-.005.513-.011,1.026-.011,1.539,0,.552.006,1.1.012,1.658.006.478.012.956.013,1.435q.006,2.256,0,4.511v16.74a19.972,19.972,0,0,0-13.971,0L26.359,11.4c0-.529,0-1.058-.007-1.591A14.54,14.54,0,0,1,30.415,8.58Z" fill="#fff"/>
      <path d="M44.7,14.844c0-.088,0-.177,0-.26a1.481,1.481,0,0,0-1.239-1.544,5.8,5.8,0,0,0-.662-.011l-.814,0,0,26a1.911,1.911,0,0,1-.028.427c-.041.143-.1.176-.127.187a.46.46,0,0,1-.394-.052,17.035,17.035,0,0,0-7.06-1.858,18.356,18.356,0,0,0-4.478.277,14.945,14.945,0,0,0-4.5,1.493.651.651,0,0,1-.793.007,2.085,2.085,0,0,0-.253-.136,17.219,17.219,0,0,0-5.617-1.552,18.834,18.834,0,0,0-6.2.34,15.7,15.7,0,0,0-4.072,1.481.255.255,0,0,1-.353-.065,1.429,1.429,0,0,1-.1-.541Q8,28.258,8,17.468V13.026H6.834a1.5,1.5,0,0,0-1.144.457,2.011,2.011,0,0,0-.4,1.35V40.138c0,1.143.536,1.772,1.511,1.772h8.083q14.145,0,28.29.011h0a1.4,1.4,0,0,0,1.108-.5,1.978,1.978,0,0,0,.419-1.3q-.015-10.093-.008-20.186ZM6.806,40.666c-.4,0-.459-.069-.459-.528v-25.3c0-.332.059-.438.084-.467s.111-.1.379-.1h.142v3.2q0,10.79.006,21.58a2.845,2.845,0,0,0,.227,1.14,1.334,1.334,0,0,0,.367.478Zm8.083,0H9.118a14.991,14.991,0,0,1,3.61-1.273,17.931,17.931,0,0,1,5.91-.323,16.312,16.312,0,0,1,5.333,1.473,1.035,1.035,0,0,1,.115.059c.034.023.068.045.1.065Zm10.9,0,.053-.028a13.921,13.921,0,0,1,4.216-1.39,17.522,17.522,0,0,1,4.261-.265,16.2,16.2,0,0,1,6.566,1.691Q33.337,40.668,25.79,40.667Zm17.756-.121a.472.472,0,0,1-.364.131h-.755a1.537,1.537,0,0,0,.521-.812,2.971,2.971,0,0,0,.083-.826l0-24.769a3.26,3.26,0,0,1,.344.011c.211.02.264.207.27.365l0,5.29q0,10.094.008,20.189A.679.679,0,0,1,43.546,40.546Z" fill="#fff"/>
      <path d="M30.789,22.174h.347v9.86h4.4V20.719c0-1.093-.568-1.773-1.483-1.773l-3.239,0a1.488,1.488,0,0,0-1.417,1.58,1.777,1.777,0,0,0,.379,1.154A1.319,1.319,0,0,0,30.789,22.174Zm.024-1.981,3.238,0c.326,0,.431.128.431.528V30.791H32.188v-9.86h-.8l-.589,0a.346.346,0,0,1-.272-.116.406.406,0,0,1-.08-.268A.338.338,0,0,1,30.813,20.193Z" fill="#fff"/>
      <path d="M33.318,17.246h.025a2.449,2.449,0,0,0,2.19-2.623h0a2.838,2.838,0,0,0-.663-1.835,2.048,2.048,0,0,0-1.561-.75,2.028,2.028,0,0,0-1.536.787,2.836,2.836,0,0,0-.632,1.833,2.9,2.9,0,0,0,.674,1.847A1.989,1.989,0,0,0,33.318,17.246ZM32.525,13.7a1.054,1.054,0,0,1,.794-.413h.011a1.061,1.061,0,0,1,.8.394,1.475,1.475,0,0,1,.348.956A1.3,1.3,0,0,1,33.33,16a1,1,0,0,1-.778-.386,1.519,1.519,0,0,1-.359-.969A1.474,1.474,0,0,1,32.525,13.7Z" fill="#fff"/>
    </g>
  </g>
</svg>
