<svg xmlns="http://www.w3.org/2000/svg" width="50" height="50" viewBox="0 0 50 50">
  <g id="frame">
    <path d="M38.35,7.37H43.5a2,2,0,0,1,2,2V43.24a2,2,0,0,1-2,2H6.5a2,2,0,0,1-2-2V9.37a2,2,0,0,1,2-2h5" style="fill: none;stroke: #fff;stroke-linecap: round;stroke-linejoin: round;stroke-width: 3px"/>
  </g>
  <g id="words">
    <text transform="translate(22.04 35.26) scale(0.98 1)" style="font-size: 25px;fill: #fff;stroke: #fff;stroke-miterlimit: 10;stroke-width: 2px;font-family: AdobeSongStd-Light-GBpc-EUC-H, Adobe Song Std;letter-spacing: 0.0009983980780836998em">i</text>
  </g>
  <g id="clip">
    <path d="M32.52,4.73H29.89V4a1.24,1.24,0,0,0-1.24-1.26h-7.3A1.24,1.24,0,0,0,20.11,4v.74H17.47A1.29,1.29,0,0,0,16.2,6v6.73H33.8V6.05A1.3,1.3,0,0,0,32.52,4.73Z" style="fill: none;stroke: #fff;stroke-linecap: round;stroke-linejoin: round;stroke-width: 3px"/>
  </g>
</svg>
