<svg xmlns="http://www.w3.org/2000/svg" viewBox="0 0 50 50">
  <g id="picker">
    <path d="M32.485,25.961a1.562,1.562,0,0,0-.469-1.015c-.244-.251-.507-.483-.762-.722q-.463-.436-.929-.871c-.3-.282-.6-.563-.9-.846s-.606-.566-.908-.85l-.923-.866c-.3-.281-.6-.564-.9-.846l-.913-.855c-.227-.213-.454-.427-.682-.639l-.913-.856c-.3-.282-.6-.563-.9-.846l-.907-.85c-.308-.289-.617-.576-.923-.866-.27-.256-.544-.507-.812-.764a3.57,3.57,0,0,0-.267-.24,1.733,1.733,0,0,0-1.293-.373,1.753,1.753,0,0,0-1.567,1.719c0,1.541,0,3.081.006,4.622.017,3.248-.015,6.5.016,9.746.005.5,0,1.008,0,1.512a1.432,1.432,0,0,0,.015.236,1.73,1.73,0,0,0,.986,1.325,1.645,1.645,0,0,0,.945.161,1.765,1.765,0,0,0,.984-.435c.17-.151.331-.313.5-.467.27-.248.535-.5.8-.752.2-.191.41-.382.612-.577.063-.062.13-.12.193-.182s.055-.046.084.017l.017.039c.181.427.365.851.549,1.276q.584,1.351,1.166,2.7c.129.3.241.6.4.886a1.708,1.708,0,0,0,.9.768,1.517,1.517,0,0,0,.46.1H26.2a.5.5,0,0,1,.188,0h.043c.012-.011.027-.007.041-.007a1.143,1.143,0,0,0,.366-.062c.171-.058.333-.137.5-.209.606-.266,1.215-.525,1.817-.8a1.757,1.757,0,0,0,.987-1.919,2.633,2.633,0,0,0-.229-.627q-.287-.629-.574-1.257t-.574-1.256q-.293-.637-.583-1.276c-.1-.227-.206-.454-.311-.68-.02-.042-.016-.061.035-.064.074,0,.148-.012.222-.02.231-.023.463-.043.694-.065l.708-.064c.236-.021.472-.042.708-.065.253-.025.507-.035.758-.074a1.725,1.725,0,0,0,1.324-.942,1.5,1.5,0,0,0,.173-.6v-.389A.017.017,0,0,1,32.485,25.961Zm-7.279.7c.147.322.289.637.433.951q.718,1.577,1.438,3.151.654,1.433,1.309,2.864c.018.041.013.056-.027.073q-1,.438-2.005.882c-.055.024-.059-.008-.073-.04q-.34-.792-.682-1.584l-1.479-3.43-.842-1.959c-.008-.019-.017-.038-.029-.062l-3.957,3.716c-.008-5.278-.016-10.54-.025-15.82l11.48,10.758Z" fill="#fff"/>
  </g>
</svg>
