<svg xmlns="http://www.w3.org/2000/svg" width="50" height="50" viewBox="0 0 50 50">
  <g id="tools">
    <g>
      <path d="M14.175,44.658,5.237,35.724c1.28-1.271,2.575-2.551,3.863-3.837,2.614-2.611,5.216-5.233,7.844-7.829.349-.345.267-.523-.029-.819Q11.6,17.937,6.3,12.614a2.113,2.113,0,0,1,0-3.443C7.318,8.148,8.33,7.118,9.361,6.105a2.057,2.057,0,0,1,3.2.032Q17.818,11.4,23.07,16.662c.194.2.364.416.549.629l12.03-12.1,8.95,8.969L32.556,26.141c.184.2.3.328.424.452q4.209,4.22,8.414,8.442a1.952,1.952,0,0,1,.477.72c.946,2.88,1.871,5.768,2.8,8.654.033.1.048.208.092.4-.919-.3-1.766-.568-2.612-.843-2.087-.678-4.178-1.349-6.259-2.047a2.28,2.28,0,0,1-.863-.521q-4.225-4.2-8.415-8.44c-.326-.33-.5-.319-.817,0q-5.663,5.691-11.345,11.362A4.033,4.033,0,0,0,14.175,44.658Zm26.261-8.91L14.242,9.68,9.658,14.273c.083.089.2.223.324.348Q12.993,17.635,16,20.645q9.666,9.693,19.321,19.394c.295.3.46.286.741,0,1.051-1.084,2.123-2.148,3.2-3.21C39.621,36.468,40.007,36.139,40.436,35.748Zm-26.421,7.11,2.19-2.137L13.4,37.98l.838-.973,2.808,2.906,2.079-2.074-2.81-2.824.839-.863c.834.844,1.678,1.669,2.485,2.529.308.33.492.3.776-.015.44-.487.914-.944,1.4-1.389.271-.25.264-.417,0-.674-.977-.95-1.927-1.927-2.9-2.883-.384-.377-.8-.725-1.179-1.072l.906-.953a5.046,5.046,0,0,0,.326.4c1.229,1.232,2.457,2.465,3.7,3.684.106.1.4.193.462.134.752-.7,1.476-1.431,2.179-2.124l-7.176-7.136L7.02,35.84ZM31.9,19.381l2.775,2.854,2.141-2.118-2.853-2.766.914-.983,2.8,2.955L39.765,17.2l-4.344-4.27.913-.982,4.3,4.354,2.225-2.24L35.833,7.018,24.7,18.128l7.035,7.031,2.1-2.088-2.856-2.792ZM13.368,8.567c-.6-.583-1.229-1.209-1.881-1.807a.747.747,0,0,0-1.11.017q-1.8,1.757-3.551,3.552A.744.744,0,0,0,6.8,11.405c.607.661,1.262,1.277,1.882,1.9ZM40.994,36.952l-4.07,4.018c.122.052.251.118.387.163,1.023.341,2.053.665,3.071,1.022a.581.581,0,0,0,.722-.19c.357-.405.948-.734,1.058-1.188s-.248-1.016-.413-1.527C41.5,38.476,41.242,37.7,40.994,36.952ZM42.665,42.1l-.575.607.861.229Z" fill="#fff"/>
      <path d="M40.436,35.748c-.429.391-.815.72-1.174,1.077-1.073,1.062-2.145,2.126-3.2,3.21-.281.29-.446.3-.741,0Q25.674,30.332,16,20.645,13,17.63,9.982,14.621c-.125-.125-.241-.259-.324-.348L14.242,9.68Z" fill="none" stroke="#fff" stroke-miterlimit="10"/>
      <path d="M14.015,42.858l-7-7.018L18.135,24.655l7.176,7.136c-.7.693-1.427,1.423-2.179,2.124-.063.059-.356-.031-.462-.134-1.243-1.219-2.471-2.452-3.7-3.684a5.046,5.046,0,0,1-.326-.4l-.906.953c.383.347.8.7,1.179,1.072.971.956,1.921,1.933,2.9,2.883.264.257.271.424,0,.674-.483.445-.957.9-1.4,1.389-.284.315-.468.345-.776.015-.807-.86-1.651-1.685-2.485-2.529l-.839.863,2.81,2.824-2.079,2.074-2.808-2.906-.838.973,2.8,2.741Z" fill="none" stroke="#fff" stroke-miterlimit="10"/>
      <path d="M31.9,19.381l-.921.9,2.856,2.792-2.1,2.088L24.7,18.128,35.833,7.018l7.025,7.045L40.633,16.3l-4.3-4.354-.913.982,4.344,4.27-2.087,2.122-2.8-2.955-.914.983,2.853,2.766-2.141,2.118Z" fill="none" stroke="#fff" stroke-miterlimit="10"/>
      <path d="M13.368,8.567,8.68,13.3c-.62-.621-1.275-1.237-1.882-1.9a.744.744,0,0,1,.028-1.076q1.757-1.794,3.551-3.552a.747.747,0,0,1,1.11-.017C12.139,7.358,12.765,7.984,13.368,8.567Z" fill="none" stroke="#fff" stroke-miterlimit="10"/>
      <path d="M40.994,36.952c.248.752.506,1.524.755,2.3.165.511.522,1.078.413,1.527s-.7.783-1.058,1.188a.581.581,0,0,1-.722.19c-1.018-.357-2.048-.681-3.071-1.022-.136-.045-.265-.111-.387-.163Z" fill="none" stroke="#fff" stroke-miterlimit="10"/>
      <path d="M42.665,42.1l.286.836L42.09,42.7Z" fill="none" stroke="#fff" stroke-miterlimit="10"/>
    </g>
  </g>
</svg>
